# xmcd CD database file
#
# Track frame offsets:
#	150
#	22653
#	43584
#	62924
#	80035
#	104689
#
# Disc length: 1751 seconds
#
# Revision: 0
# Processed by: cddbd v1.5.1PL0 Copyright (c) Steve Scherf et al.
# Submitted via: CDex 1.50beta10
#
DISCID=4806d506
DTITLE=CAPSULE COLORS - CAPSULE 1
DYEAR=2003
DGENRE=Pop
TTITLE0=SPADE
TTITLE1=generate a buzz
TTITLE2=arcadia
TTITLE3=FEEL
TTITLE4=Peal of Bells
TTITLE5=CAPSULE
EXTD=YEAR: 2003
EXTT0=
EXTT1=
EXTT2=
EXTT3=
EXTT4=
EXTT5=
PLAYORDER=
